<?xml version="1.0" encoding="utf-8"?>
<!-- Generator: Adobe Illustrator 25.3.1, SVG Export Plug-In . SVG Version: 6.00 Build 0)  -->
<svg version="1.1" id="Layer_1" xmlns="http://www.w3.org/2000/svg" xmlns:xlink="http://www.w3.org/1999/xlink" x="0px" y="0px"
	 viewBox="0 0 2880 452" style="enable-background:new 0 0 2880 452;" xml:space="preserve">
<style type="text/css">
	.st0{fill:#B0D8DA;}
	.st1{fill:#89AE99;}
	.st2{fill:#729180;}
	.st3{fill:#875838;}
	.st4{fill:#99643E;}
	.st5{fill:#A86F46;}
	.st6{fill:#CA8250;}
	.st7{fill:#B4DDC8;}
	.st8{fill:#93BEA8;}
	.st9{fill:#739080;}
	.st10{fill:#B8D8EB;}
	.st11{fill:#5B6670;}
	.st12{fill:#C56F5C;}
	.st13{fill:#A45B50;}
	.st14{fill:#172951;}
	.st15{fill:#FFC935;}
	.st16{fill:#965246;}
	.st17{fill:#6BA643;}
	.st18{fill:#8B3D7D;}
	.st19{fill:#F6EB21;}
	.st20{fill:#A45D51;}
	.st21{fill:#1B2753;}
	.st22{fill:#D9D8D6;}
	.st23{fill:#FFC935;stroke:#002554;stroke-width:3.3586;stroke-miterlimit:10;}
	.st24{fill:none;stroke:#002554;stroke-width:3.3586;stroke-linecap:round;stroke-miterlimit:10;}
	.st25{fill:none;stroke:#002554;stroke-width:6.7173;stroke-linecap:round;stroke-miterlimit:10;}
	.st26{fill:#FFC935;stroke:#002554;stroke-width:2.3638;stroke-miterlimit:10;}
	.st27{fill:none;stroke:#002554;stroke-width:2.3638;stroke-linecap:round;stroke-miterlimit:10;}
	.st28{fill:none;stroke:#002554;stroke-width:4.7276;stroke-linecap:round;stroke-miterlimit:10;}
	.st29{fill:#FFC935;stroke:#002554;stroke-width:2.8086;stroke-miterlimit:10;}
	.st30{fill:none;stroke:#002554;stroke-width:2.8086;stroke-linecap:round;stroke-miterlimit:10;}
	.st31{fill:none;stroke:#002554;stroke-width:5.6172;stroke-linecap:round;stroke-miterlimit:10;}
	.st32{fill:#FFC935;stroke:#002554;stroke-width:3.3359;stroke-miterlimit:10;}
	.st33{fill:none;stroke:#002554;stroke-width:3.3359;stroke-linecap:round;stroke-miterlimit:10;}
	.st34{fill:none;stroke:#002554;stroke-width:6.6717;stroke-linecap:round;stroke-miterlimit:10;}
	.st35{fill:#FFC935;stroke:#002554;stroke-width:3.6941;stroke-miterlimit:10;}
	.st36{fill:none;stroke:#002554;stroke-width:3.6941;stroke-linecap:round;stroke-miterlimit:10;}
	.st37{fill:none;stroke:#002554;stroke-width:7.3882;stroke-linecap:round;stroke-miterlimit:10;}
	.st38{fill:#FFC935;stroke:#002554;stroke-width:2.7706;stroke-miterlimit:10;}
	.st39{fill:none;stroke:#002554;stroke-width:2.7706;stroke-linecap:round;stroke-miterlimit:10;}
	.st40{fill:none;stroke:#002554;stroke-width:5.5412;stroke-linecap:round;stroke-miterlimit:10;}
	.st41{fill:#FFC935;stroke:#002554;stroke-width:6.6648;stroke-miterlimit:10;}
	.st42{fill:none;stroke:#002554;stroke-width:6.6648;stroke-linecap:round;stroke-miterlimit:10;}
	.st43{fill:none;stroke:#002554;stroke-width:13.3296;stroke-linecap:round;stroke-miterlimit:10;}
</style>
<rect x="-256.67" y="-1111.29" class="st0" width="3329.17" height="5738.85"/>
<rect y="350.56" class="st1" width="2880" height="101.44"/>
<g>
	<g>
		<path class="st1" d="M2502.79,352.7c0.19-0.8,0.3-1.63,0.3-2.48c0-5.91-4.79-10.71-10.71-10.71c-0.52,0-1.03,0.05-1.54,0.12
			c0.02-0.27,0.04-0.54,0.04-0.81c0-5.66-4.4-10.28-9.96-10.67c0.18-0.78,0.28-1.58,0.28-2.41c0-5.91-4.79-10.71-10.71-10.71
			s-10.71,4.79-10.71,10.71c0,5.66,4.4,10.28,9.96,10.67c-0.18,0.78-0.28,1.58-0.28,2.41c0,2.34,0.76,4.49,2.02,6.25
			c-8.04,1.35-14.21,5.66-15.51,11.02h-19.17v13.96h29.75c3.04,1.09,6.54,1.71,10.26,1.71s7.22-0.62,10.26-1.71h5.32
			c1.96,2.35,4.92,3.85,8.22,3.85c5.91,0,10.71-4.79,10.71-10.71C2511.34,358.01,2507.67,353.7,2502.79,352.7z"/>
		<path class="st1" d="M2478.59,341.09c0-5.04-4.09-9.13-9.13-9.13c-4.67,0-8.51,3.51-9.05,8.03c-4.39,0.66-7.77,4.44-7.77,9.01
			c0,0.4,0.03,0.79,0.08,1.17c-1.62-1.47-3.77-2.38-6.13-2.38c-3.84,0-7.11,2.37-8.46,5.72c-0.04,0-0.07-0.01-0.11-0.01
			c-5.04,0-9.13,4.09-9.13,9.13s4.09,9.13,9.13,9.13c2.69,0,5.1-1.17,6.77-3.02H2472v-14.48h-2.79c0.85-1.21,1.43-2.62,1.61-4.16
			C2475.22,349.44,2478.59,345.67,2478.59,341.09z"/>
		<path class="st2" d="M2456.63,368.74h0.07c3.34,0,6.24-2.62,6.26-5.96c0-0.02,0-0.05,0-0.07c0-5.22-2.31-9.51-5.26-10
			c1.13,1.83,1.84,4.43,1.84,7.32C2459.55,363.76,2458.38,367,2456.63,368.74z"/>
		<path class="st2" d="M2474.08,340.58c0,0.92-0.11,1.8-0.32,2.64c2.84,1.4,4.84,4.74,4.84,8.64c0,1.58-0.33,3.06-0.91,4.37
			c3.36,1.04,5.85,4.69,5.85,9.04c0,0.26-0.01,0.52-0.03,0.78h4.31c-0.2-4.11-2.61-7.5-5.83-8.5c0.58-1.3,0.91-2.79,0.91-4.37
			c0-3.9-2-7.25-4.84-8.64c0.21-0.84,0.32-1.72,0.32-2.64c0-5.16-3.49-9.35-7.8-9.35c-0.1,0-0.19,0.01-0.29,0.02
			C2472.55,334.21,2474.08,337.18,2474.08,340.58z"/>
		<circle class="st1" cx="2461.84" cy="334.98" r="5.78"/>
	</g>
	<g id="Trees_12_">
		<g>
			<rect x="2351.3" y="173.08" class="st3" width="3.2" height="70"/>
			<rect x="2349.7" y="173.08" class="st4" width="3.2" height="70"/>
		</g>
		<g>
			<rect x="2310.38" y="161.69" class="st5" width="5.93" height="81.39"/>
			<rect x="2307.42" y="161.69" class="st6" width="5.93" height="81.39"/>
		</g>
		<g>
			<ellipse class="st7" cx="2351.74" cy="119.56" rx="24.12" ry="55.08"/>
			<path class="st8" d="M2354.27,64.78c6.05,10.01,9.99,26.26,9.99,44.63c0,30.42-10.8,55.08-24.12,55.08c-0.86,0-1.7-0.11-2.54-0.3
				c3.97,6.57,8.85,10.46,14.13,10.46c13.32,0,24.12-24.66,24.12-55.08C2375.86,91.1,2366.4,67.68,2354.27,64.78z"/>
		</g>
		<g>
			<circle class="st1" cx="2312.36" cy="128.09" r="36.4"/>
			<path class="st9" d="M2333.44,98.42c3.99,5.84,6.32,12.89,6.32,20.5c0,20.11-16.3,36.4-36.4,36.4c-7.86,0-15.13-2.5-21.08-6.73
				c6.55,9.6,17.58,15.91,30.08,15.91c20.11,0,36.4-16.3,36.4-36.4C2348.76,115.84,2342.71,105.02,2333.44,98.42z"/>
		</g>
	</g>
	<g>
		<rect x="2182.54" y="246.43" class="st10" width="284.98" height="125.57"/>
		<polygon class="st11" points="2467.52,245.99 2185.38,245.99 2185.38,255.38 2184.29,255.38 2184.29,370.88 2219.23,370.88 
			2219.23,257.35 2467.52,257.35 		"/>
	</g>
	<rect x="1922.27" y="245.65" class="st10" width="284.98" height="125.57"/>
	<polygon class="st11" points="2211.32,245.99 1957.96,245.99 1957.96,255.38 1956.99,255.38 1956.99,370.88 1987.92,370.88 
		1987.92,257.35 2211.32,257.35 	"/>
	<polygon class="st12" points="1925.76,190.73 2415.8,190.73 2484.37,245.93 1920.09,245.93 	"/>
	<polygon class="st13" points="1934.5,159.68 1956.99,245.71 1922.27,245.71 1924.02,153.78 	"/>
	<g id="Left_Window_6_">
		<polygon class="st14" points="2039.25,326.77 2039.25,277.02 2003.31,277.02 2003.31,326.77 2000.55,326.77 2000.55,332.44 
			2042.15,332.44 2042.15,326.77 		"/>
		<g>
			<rect x="2008.84" y="282.82" class="st15" width="11.06" height="19.35"/>
			<rect x="2022.66" y="282.82" class="st15" width="11.06" height="19.35"/>
			<rect x="2008.84" y="304.8" class="st15" width="11.06" height="19.35"/>
			<rect x="2022.66" y="304.8" class="st15" width="11.06" height="19.35"/>
		</g>
	</g>
	<g id="Right_Window_6_">
		<polygon class="st14" points="2188.96,326.77 2188.96,277.02 2153.03,277.02 2153.03,326.77 2150.27,326.77 2150.27,332.44 
			2191.87,332.44 2191.87,326.77 		"/>
		<g>
			<rect x="2158.56" y="282.82" class="st15" width="11.06" height="19.35"/>
			<rect x="2172.38" y="282.82" class="st15" width="11.06" height="19.35"/>
			<rect x="2158.56" y="304.8" class="st15" width="11.06" height="19.35"/>
			<rect x="2172.38" y="304.8" class="st15" width="11.06" height="19.35"/>
		</g>
	</g>
	<g id="Front_Door_6_">
		<rect x="2074.2" y="280.61" class="st12" width="53.21" height="90.26"/>
		<rect x="2081.67" y="287.52" class="st16" width="37.18" height="26.95"/>
		<rect x="2081.67" y="320.83" class="st16" width="37.18" height="11.61"/>
		<rect x="2081.67" y="338.11" class="st16" width="37.18" height="26.26"/>
	</g>
	<g id="Planter_Box_6_">
		<path class="st17" d="M2041.91,355.99c-1.51,0-2.8,0.69-3.37,1.68c-0.22-0.05-0.44-0.09-0.68-0.09c-0.01,0-0.03,0-0.04,0
			c-0.2-1.37-1.36-2.42-2.79-2.42c-1.22,0-2.25,0.78-2.65,1.86c-0.14-0.02-0.27-0.04-0.42-0.04c-0.15,0-0.29,0.02-0.44,0.04
			c-0.4-1.08-1.43-1.86-2.65-1.86c-0.83,0-1.57,0.36-2.09,0.94c-0.24-0.06-0.48-0.11-0.74-0.11c-0.38,0-0.74,0.08-1.06,0.21
			c-0.34-1.18-1.42-2.05-2.71-2.05c-1.56,0-2.83,1.27-2.83,2.83c0,0.08,0.02,0.15,0.02,0.23c-0.51-0.73-1.36-1.22-2.32-1.22
			c-0.15,0-0.3,0.02-0.44,0.04c-0.51-0.53-1.23-0.87-2.03-0.87c-1,0-1.87,0.52-2.38,1.3c-0.45-0.3-0.99-0.48-1.57-0.48
			c-0.6,0-1.16,0.19-1.61,0.51c-0.5-0.8-1.38-1.33-2.39-1.33c-0.22,0-0.44,0.03-0.64,0.08c-0.33-1.2-1.41-2.08-2.72-2.08
			c-1.56,0-2.83,1.27-2.83,2.83c0,0.04,0.01,0.08,0.01,0.12c-0.24-0.07-0.49-0.12-0.76-0.12c-1.56,0-2.83,1.27-2.83,2.83
			s1.27,2.83,2.83,2.83c0.6,0,1.16-0.19,1.62-0.52c0.48,0.89,1.4,1.5,2.49,1.5c1.21,0,2.23-0.76,2.64-1.83
			c0.06,0,0.12,0.02,0.19,0.02c0.6,0,1.16-0.19,1.61-0.51c0.5,0.8,1.38,1.33,2.39,1.33c1,0,1.87-0.52,2.38-1.3
			c0.45,0.3,0.99,0.48,1.57,0.48c0.15,0,0.3-0.02,0.44-0.04c0.51,0.53,1.23,0.87,2.03,0.87c0.84,0,1.58-0.37,2.1-0.95
			c0.45,0.97,1.42,1.64,2.56,1.64c1.03,0,1.92-0.56,2.42-1.38c0.49,0.42,1.13,0.68,1.83,0.68c0.83,0,1.57-0.36,2.09-0.94
			c0.24,0.06,0.48,0.11,0.74,0.11c0.15,0,0.29-0.02,0.43-0.04c0.4,1.08,1.43,1.86,2.65,1.86c1.22,0,2.25-0.77,2.65-1.86
			c0.14,0.02,0.27,0.04,0.42,0.04c0.01,0,0.03,0,0.04,0c0.2,1.37,1.36,2.42,2.79,2.42c1.2,0,2.22-0.75,2.63-1.81
			c0.44,0.14,0.91,0.22,1.42,0.22c2.04,0,3.69-1.27,3.69-2.83S2043.95,355.99,2041.91,355.99z"/>
		<circle class="st18" cx="1999.52" cy="358.12" r="0.72"/>
		<circle class="st18" cx="2026.27" cy="358.84" r="0.72"/>
		<circle class="st18" cx="2021.35" cy="358.12" r="0.72"/>
		<circle class="st18" cx="2019.74" cy="356.99" r="0.72"/>
		<circle class="st18" cx="2039.6" cy="358.12" r="0.72"/>
		<circle class="st18" cx="2029.22" cy="355.93" r="0.72"/>
		<circle class="st18" cx="2015" cy="357.87" r="0.72"/>
		<circle class="st19" cx="2007.16" cy="358.2" r="0.72"/>
		<circle class="st19" cx="2003.39" cy="356.99" r="0.72"/>
		<circle class="st19" cx="2008.12" cy="356.27" r="0.72"/>
		<circle class="st19" cx="2024.49" cy="356.27" r="0.72"/>
		<circle class="st19" cx="2034.92" cy="356.99" r="0.72"/>
		<circle class="st19" cx="2015.72" cy="355.21" r="0.72"/>
		<circle class="st19" cx="2033" cy="358.84" r="0.72"/>
		<polygon class="st12" points="1993.91,359.8 1996.54,370.88 2045.46,370.88 2048.09,359.8 		"/>
		<polygon class="st13" points="1999.34,359.8 1999.34,370.88 1996.54,370.88 1993.91,359.8 		"/>
		<polygon class="st20" points="2045.33,359.8 2043.11,370.88 2045.46,370.88 2048.09,359.8 		"/>
	</g>
	<g>
		<polygon class="st10" points="1817.82,160.82 1817.82,370.88 1974.31,370.88 1974.31,161.92 1895.52,99.39 		"/>
		<g>
			<rect x="1851.6" y="183.76" class="st21" width="87.67" height="50.27"/>
			<rect x="1856.29" y="187.37" class="st15" width="78.29" height="43.95"/>
		</g>
		<g>
			<rect x="1851.6" y="272.21" class="st21" width="87.67" height="50.27"/>
			<rect x="1856.29" y="275.83" class="st15" width="78.29" height="43.95"/>
		</g>
		<polygon class="st11" points="1817.82,176.85 1898.58,115.57 1974.31,173.08 1974.31,161.92 1895.52,99.39 1817.82,160.82 		"/>
		<polygon class="st16" points="1776.66,168.68 1790.8,187.37 1895.59,107.4 2000.23,187.37 2014.37,169.15 1895.52,78.34 		"/>
	</g>
	<g>
		<rect x="2250.4" y="269.02" class="st14" width="201.1" height="103.27"/>
		<g>
			<rect x="2257.03" y="275.83" class="st22" width="187.85" height="96.46"/>
			<g>
				<g>
					<rect x="2267.93" y="287.52" class="st32" width="33.42" height="14.65"/>
					<rect x="2312.14" y="287.52" class="st32" width="33.42" height="14.65"/>
					<rect x="2356.35" y="287.52" class="st32" width="33.42" height="14.65"/>
					<rect x="2400.57" y="287.52" class="st32" width="33.42" height="14.65"/>
				</g>
				<line class="st33" x1="2264.52" y1="311.72" x2="2437.4" y2="311.72"/>
				<line class="st33" x1="2264.52" y1="341.3" x2="2437.4" y2="341.3"/>
				<line class="st34" x1="2355.61" y1="357.87" x2="2346.3" y2="357.87"/>
			</g>
		</g>
	</g>
	<g id="Trees_11_">
		<ellipse class="st7" cx="1753.58" cy="234.37" rx="26.93" ry="61.5"/>
		<rect x="1752.27" y="294.12" class="st3" width="3.57" height="78.17"/>
		<rect x="1750.49" y="294.12" class="st4" width="3.57" height="78.17"/>
		<rect x="1796.44" y="281.41" class="st5" width="6.62" height="90.88"/>
		<rect x="1793.13" y="281.41" class="st6" width="6.62" height="90.88"/>
		<path class="st8" d="M1756.41,173.2c6.76,11.18,11.15,29.32,11.15,49.83c0,33.97-12.06,61.5-26.93,61.5
			c-0.96,0-1.9-0.12-2.83-0.34c4.44,7.34,9.88,11.67,15.78,11.67c14.87,0,26.93-27.54,26.93-61.5
			C1780.51,202.58,1769.95,176.43,1756.41,173.2z"/>
		<circle class="st1" cx="1797.54" cy="243.89" r="40.65"/>
		<path class="st9" d="M1821.08,210.76c4.45,6.52,7.06,14.4,7.06,22.89c0,22.45-18.2,40.65-40.65,40.65
			c-8.78,0-16.89-2.79-23.54-7.52c7.32,10.72,19.63,17.76,33.59,17.76c22.45,0,40.65-18.2,40.65-40.65
			C1838.19,230.22,1831.43,218.13,1821.08,210.76z"/>
	</g>
	<g>
		<path class="st1" d="M2239.92,368.36c0.19-0.8,0.3-1.63,0.3-2.48c0-5.91-4.79-10.71-10.71-10.71c-0.52,0-1.03,0.05-1.54,0.12
			c0.02-0.27,0.04-0.54,0.04-0.81c0-5.66-4.4-10.28-9.96-10.67c0.18-0.78,0.28-1.58,0.28-2.41c0-5.91-4.79-10.71-10.71-10.71
			c-5.91,0-10.71,4.79-10.71,10.71c0,5.66,4.4,10.28,9.96,10.67c-0.18,0.78-0.28,1.58-0.28,2.41c0,2.34,0.76,4.49,2.02,6.25
			c-8.04,1.35-14.21,5.66-15.51,11.02h-19.17v13.96h29.75c3.04,1.09,6.54,1.71,10.26,1.71c3.73,0,7.22-0.62,10.26-1.71h5.32
			c1.96,2.35,4.92,3.85,8.22,3.85c5.91,0,10.71-4.79,10.71-10.71C2248.47,373.68,2244.8,369.36,2239.92,368.36z"/>
		<path class="st1" d="M2215.73,356.76c0-5.04-4.09-9.13-9.13-9.13c-4.67,0-8.51,3.51-9.05,8.03c-4.39,0.66-7.77,4.44-7.77,9.01
			c0,0.4,0.03,0.79,0.08,1.17c-1.62-1.47-3.77-2.38-6.13-2.38c-3.84,0-7.11,2.37-8.46,5.72c-0.04,0-0.07-0.01-0.11-0.01
			c-5.04,0-9.13,4.09-9.13,9.13s4.09,9.13,9.13,9.13c2.69,0,5.1-1.17,6.77-3.02h27.21v-14.48h-2.79c0.85-1.21,1.43-2.62,1.61-4.16
			C2212.35,365.11,2215.73,361.33,2215.73,356.76z"/>
		<path class="st2" d="M2193.77,384.41h0.07c3.34,0,6.24-2.62,6.26-5.96c0-0.02,0-0.05,0-0.07c0-5.22-2.31-9.51-5.26-10
			c1.13,1.83,1.84,4.43,1.84,7.32C2196.68,379.43,2195.51,382.67,2193.77,384.41z"/>
		<path class="st2" d="M2211.21,356.25c0,0.92-0.11,1.8-0.32,2.64c2.84,1.4,4.84,4.74,4.84,8.64c0,1.58-0.33,3.06-0.91,4.37
			c3.36,1.04,5.85,4.69,5.85,9.04c0,0.26-0.01,0.52-0.03,0.78h4.31c-0.2-4.11-2.61-7.5-5.83-8.5c0.58-1.3,0.91-2.79,0.91-4.37
			c0-3.9-2-7.25-4.84-8.64c0.21-0.84,0.32-1.72,0.32-2.64c0-5.16-3.49-9.35-7.8-9.35c-0.1,0-0.19,0.01-0.29,0.02
			C2209.68,349.88,2211.21,352.85,2211.21,356.25z"/>
		<circle class="st1" cx="2198.97" cy="350.65" r="5.78"/>
	</g>
</g>
</svg>
